#!OML:ASF H:\ManfredETheater\Project 1\Capture day 1\Session 1\subject.ASF
:FULLY-SPECIFIED
:DEGREES
217
root -1.81826 17.2818 40.064 6.001 27.0539 3.51796
lowerback 13.8938 -1.60515 -1.36359
upperback 0.0248763 -2.24469 1.19777
thorax -7.67707 -1.0083 2.49918
lowerneck -12.2009 -10.5963 -12.2974
upperneck 2.10175 -13.1513 12.6654
head 4.26603 -6.10168 4.75892
rclavicle -3.30976e-014 7.95139e-016
rhumerus -39.6367 -7.982 -79.2426
rradius 41.2331
rwrist -5.2299
rhand -21.8136 -13.0715
rfingers 7.12502
rthumb 4.58879 -43.0018
lclavicle -3.30976e-014 7.95139e-016
lhumerus -44.9934 13.7555 74.7909
lradius 56.8621
lwrist -5.73032
lhand -16.4074 6.62094
lfingers 7.12502
lthumb 9.80711 36.3726
rfemur -17.3112 4.23072 17.2552
rtibia 33.2637
rfoot -14.4106 -6.64495
rtoes 8.83654
lfemur -13.384 -7.71991 -6.34526
ltibia 53.769
lfoot 4.49181 6.00827
ltoes 0.157545
218
root -1.82557 17.2828 40.142 5.79126 26.4763 3.42768
lowerback 13.7287 -1.61824 -1.33473
upperback -0.03968 -2.25768 1.19244
thorax -7.65409 -1.01632 2.47497
lowerneck -12.3406 -10.4974 -12.1649
upperneck 2.2691 -13.027 12.5509
head 4.30673 -6.0372 4.70985
rclavicle 1.44119e-014 2.38542e-015
rhumerus -39.4961 -7.90669 -79.3266
rradius 41.2955
rwrist -5.26997
rhand -21.8958 -13.0874
rfingers 7.12502
rthumb 4.50938 -43.0194
lclavicle 1.44119e-014 2.38542e-015
lhumerus -44.7414 13.5028 75.2081
lradius 56.7688
lwrist -5.99989
lhand -16.2716 6.34771
lfingers 7.12502
lthumb 9.93816 36.0931
rfemur -16.8335 4.77715 17.5077
rtibia 33.037
rfoot -14.5108 -6.6432
rtoes 8.98735
lfemur -13.81 -7.62966 -6.68049
ltibia 54.7447
lfoot 3.14759 5.35568
ltoes -0.3986
219
root -1.83213 17.2829 40.2189 5.58789 25.8927 3.32894
lowerback 13.5549 -1.62612 -1.2927
upperback -0.106395 -2.26155 1.18851
thorax -7.62926 -1.0204 2.4427
lowerneck -12.4575 -10.3959 -12.0325
upperneck 2.4353 -12.901 12.427
head 4.34283 -5.97329 4.65906
rclavicle -2.87244e-014 -1.51076e-014
rhumerus -39.3604 -7.8468 -79.4014
rradius 41.3476
rwrist -5.31696
rhand -21.9789 -13.0969
rfingers 7.12502
rthumb 4.42917 -43.0306
lclavicle -2.87244e-014 -1.51076e-014
lhumerus -44.4987 13.2361 75.617
lradius 56.6628
lwrist -6.225
lhand -16.2386 6.01251
lfingers 7.12502
lthumb 9.97 35.7564
rfemur -16.3749 5.30665 17.7656
rtibia 32.8292
rfoot -14.6167 -6.61847
rtoes 9.13442
lfemur -14.2649 -7.50292 -7.02779
ltibia 55.6798
lfoot 1.93221 4.73223
ltoes -0.886486
220
root -1.83794 17.2822 40.2949 5.40761 25.3099 3.24556
lowerback 13.3728 -1.63141 -1.25591
upperback -0.172216 -2.26308 1.1814
thorax -7.59879 -1.02331 2.4092
lowerneck -12.5919 -10.2945 -11.8954
upperneck 2.61693 -12.7742 12.2871
head 4.38515 -5.90892 4.60176
rclavicle -6.36111e-015 1.82882e-014
rhumerus -39.212 -7.80266 -79.4688
rradius 41.3829
rwrist -5.3631
rhand -22.05 -13.095
rfingers 7.12502
rthumb 4.3605 -43.0302
lclavicle -6.36111e-015 1.82882e-014
lhumerus -44.2527 12.9672 76.0173
lradius 56.5397
lwrist -6.40153
lhand -16.306 5.60052
lfingers 7.12502
lthumb 9.90495 35.3475
rfemur -15.9412 5.80167 18.0031
rtibia 32.6383
rfoot -14.7284 -6.55947
rtoes 9.28334
lfemur -14.7545 -7.34642 -7.40996
ltibia 56.5673
lfoot 0.825999 4.15622
ltoes -1.38039
221
root -1.84298 17.2809 40.3701 5.2371 24.719 3.16454
lowerback 13.1882 -1.63176 -1.21617
upperback -0.236268 -2.25768 1.17362
thorax -7.56534 -1.02303 2.37185
lowerneck -12.7417 -10.1918 -11.7495
upperneck 2.81661 -12.6452 12.1275
head 4.43353 -5.84362 4.53645
rclavicle 6.02318e-014 -1.74931e-014
rhumerus -39.0577 -7.77175 -79.5297
rradius 41.406
rwrist -5.39598
rhand -22.1022 -13.091
rfingers 7.12502
rthumb 4.31012 -43.0272
lclavicle 6.02318e-014 -1.74931e-014
lhumerus -44.0103 12.6997 76.4047
lradius 56.4047
lwrist -6.53319
lhand -16.4562 5.14575
lfingers 7.12502
lthumb 9.76002 34.8996
rfemur -15.523 6.27128 18.233
rtibia 32.46
rfoot -14.8427 -6.46565
rtoes 9.42259
lfemur -15.2657 -7.15817 -7.81539
ltibia 57.402
lfoot -0.197372 3.64689
ltoes -1.85412
222
root -1.84706 17.2792 40.4448 5.0819 24.125 3.08993
lowerback 12.9973 -1.62962 -1.17487
upperback -0.298781 -2.24878 1.16545
thorax -7.52679 -1.02119 2.3323
lowerneck -12.9145 -10.088 -11.5957
upperneck 3.03741 -12.5137 11.9477
head 4.49018 -5.77706 4.46273
rclavicle -2.19657e-014 3.18055e-015
rhumerus -38.8949 -7.74889 -79.5858
rradius 41.418
rwrist -5.41893
rhand -22.1425 -13.0862
rfingers 7.12502
rthumb 4.27118 -43.0231
lclavicle -2.19657e-014 3.18055e-015
lhumerus -43.7721 12.4412 76.7781
lradius 56.27
lwrist -6.63209
lhand -16.6268 4.75361
lfingers 7.12502
lthumb 9.59545 34.5151
rfemur -15.123 6.69882 18.4499
rtibia 32.2937
rfoot -14.9609 -6.32766
rtoes 9.55034
lfemur -15.7993 -6.9458 -8.24794
ltibia 58.1765
lfoot -1.15954 3.21618
ltoes -2.37429
223
root -1.8508 17.2774 40.5187 4.93975 23.5284 3.00947
lowerback 12.8052 -1.62562 -1.12708
upperback -0.360683 -2.2362 1.16131
thorax -7.48701 -1.01773 2.29266
lowerneck -13.1161 -9.98347 -11.4366
upperneck 3.27945 -12.3794 11.7522
head 4.55667 -5.70881 4.38229
rclavicle 1.26228e-014 -7.95139e-015
rhumerus -38.7205 -7.72889 -79.641
rradius 41.4189
rwrist -5.43342
rhand -22.1718 -13.0803
rfingers 7.12502
rthumb 4.24287 -43.0178
lclavicle 1.26228e-014 -7.95139e-015
lhumerus -43.5811 12.1424 77.1491
lradius 56.2162
lwrist -6.64927
lhand -16.78 4.48029
lfingers 7.12502
lthumb 9.44758 34.2485
rfemur -14.744 7.10107 18.6664
rtibia 32.1335
rfoot -15.0772 -6.15485
rtoes 9.70518
lfemur -16.3632 -6.70706 -8.68911
ltibia 58.8859
lfoot -2.07093 2.86133
ltoes -2.91454
224
root -1.85385 17.2754 40.5919 4.81392 22.9314 2.94288
lowerback 12.6131 -1.62008 -1.08794
upperback -0.420678 -2.22303 1.1564
thorax -7.4448 -1.01368 2.257
lowerneck -13.3435 -9.87804 -11.2742
upperneck 3.53991 -12.2423 11.5443
head 4.63214 -5.63888 4.29668
rclavicle 7.85199e-015 -1.19271e-014
rhumerus -38.5363 -7.70145 -79.699
rradius 41.4095
rwrist -5.45431
rhand -22.2109 -13.0772
rfingers 7.12502
rthumb 4.20516 -43.0154
lclavicle 7.85199e-015 -1.19271e-014
lhumerus -43.3857 11.8749 77.4975
lradius 56.1407
lwrist -6.65436
lhand -16.869 4.29892
lfingers 7.12502
lthumb 9.36177 34.071
rfemur -14.3775 7.45966 18.8611
rtibia 31.9767
rfoot -15.1942 -5.93374
rtoes 9.87023
lfemur -16.9473 -6.4499 -9.16142
ltibia 59.5216
lfoot -2.93862 2.58478
ltoes -3.50665
225
root -1.85643 17.2735 40.6644 4.69809 22.3321 2.88291
lowerback 12.4281 -1.61345 -1.05214
upperback -0.480239 -2.20899 1.15172
thorax -7.40589 -1.00899 2.22366
lowerneck -13.5893 -9.77088 -11.1104
upperneck 3.81444 -12.1016 11.3284
head 4.71448 -5.56717 4.20799
rclavicle -4.3832e-014 -1.59028e-014
rhumerus -38.3465 -7.65865 -79.765
rradius 41.3901
rwrist -5.49035
rhand -22.271 -13.0655
rfingers 7.12502
rthumb 4.1471 -43.0048
lclavicle -4.3832e-014 -1.59028e-014
lhumerus -43.234 11.5903 77.8327
lradius 56.1256
lwrist -6.6118
lhand -16.8845 4.24797
lfingers 7.12502
lthumb 9.34681 34.0207
rfemur -14.0197 7.79169 19.0418
rtibia 31.8207
rfoot -15.3112 -5.6789
rtoes 10.0478
lfemur -17.5453 -6.17758 -9.65665
ltibia 60.0755
lfoot -3.75294 2.38794
ltoes -4.11242
226
root -1.8585 17.2715 40.7366 4.58686 21.7361 2.81957
lowerback 12.2471 -1.60764 -1.00958
upperback -0.539962 -2.19493 1.14976
thorax -7.36947 -1.00442 2.18961
lowerneck -13.8417 -9.66244 -10.9486
upperneck 4.09623 -11.9585 11.1089
head 4.80047 -5.49457 4.11854
rclavicle 5.82439e-014 -1.43125e-014
rhumerus -38.1557 -7.60316 -79.8361
rradius 41.3622
rwrist -5.52728
rhand -22.3367 -13.0522
rfingers 7.12502
rthumb 4.08361 -42.9928
lclavicle 5.82439e-014 -1.43125e-014
lhumerus -43.0872 11.3409 78.1378
lradius 56.0858
lwrist -6.57845
lhand -16.7909 4.29275
lfingers 7.12502
lthumb 9.43706 34.0615
rfemur -13.6655 8.09207 19.2198
rtibia 31.6657
rfoot -15.4286 -5.38927
rtoes 10.2497
lfemur -18.1533 -5.89352 -10.1612
ltibia 60.5392
lfoot -4.52713 2.26258
ltoes -4.73879
